<svg width="177" height="61" viewBox="0 0 177 61" fill="none" xmlns="http://www.w3.org/2000/svg">
<path d="M84.6802 35.9375V23.7875H84.6964L90.9496 32.6489L90.2044 32.4869L96.4252 23.7875H96.4576V35.9375H94.7404V27.6917L94.8538 28.5827L90.5122 34.7225H90.4798L86.0572 28.5827L86.3488 27.7727V35.9375H84.6802ZM102.576 36.0995C101.787 36.0995 101.112 35.9483 100.551 35.6459C99.9892 35.3327 99.5572 34.9061 99.2548 34.3661C98.9524 33.8153 98.8012 33.1889 98.8012 32.4869C98.8012 31.8173 98.9686 31.2125 99.3034 30.6725C99.649 30.1217 100.108 29.6843 100.68 29.3603C101.264 29.0363 101.906 28.8743 102.608 28.8743C103.515 28.8743 104.266 29.1389 104.86 29.6681C105.465 30.1973 105.87 30.9371 106.075 31.8875L100.551 33.7991L100.162 32.8271L104.585 31.2395L104.244 31.4501C104.115 31.1153 103.91 30.8237 103.629 30.5753C103.348 30.3161 102.965 30.1865 102.479 30.1865C102.09 30.1865 101.739 30.2837 101.426 30.4781C101.123 30.6617 100.88 30.9209 100.697 31.2557C100.524 31.5797 100.437 31.9631 100.437 32.4059C100.437 32.8595 100.529 33.2591 100.713 33.6047C100.907 33.9395 101.166 34.2041 101.49 34.3985C101.825 34.5929 102.198 34.6901 102.608 34.6901C102.9 34.6901 103.175 34.6361 103.434 34.5281C103.704 34.4201 103.958 34.2851 104.196 34.1231L104.957 35.3543C104.601 35.5811 104.212 35.7647 103.791 35.9051C103.38 36.0347 102.975 36.0995 102.576 36.0995ZM107.927 35.9375V23.3501H109.547V30.6887L109.531 30.4133C109.758 29.9705 110.104 29.6033 110.568 29.3117C111.032 29.0201 111.589 28.8743 112.237 28.8743C112.874 28.8743 113.398 29.0633 113.808 29.4413C114.229 29.8193 114.445 30.3107 114.456 30.9155V35.9375H112.787V31.4987C112.777 31.1531 112.674 30.8723 112.48 30.6563C112.285 30.4295 111.983 30.3107 111.572 30.2999C111.205 30.2999 110.87 30.4133 110.568 30.6401C110.266 30.8561 110.028 31.1585 109.855 31.5473C109.682 31.9253 109.596 32.3573 109.596 32.8433V35.9375H107.927ZM119.843 36.0995C119.206 36.0995 118.628 35.9699 118.11 35.7107C117.591 35.4407 117.181 35.0411 116.879 34.5119C116.576 33.9827 116.425 33.3293 116.425 32.5517C116.425 31.7849 116.582 31.1261 116.895 30.5753C117.219 30.0245 117.64 29.6033 118.158 29.3117C118.688 29.0093 119.26 28.8581 119.876 28.8581C120.524 28.8581 121.053 28.9985 121.463 29.2793C121.884 29.5493 122.214 29.8679 122.451 30.2351L122.338 30.4943L122.5 29.1497H124.039V35.9375H122.37V34.2365L122.549 34.6415C122.505 34.7279 122.414 34.8521 122.273 35.0141C122.133 35.1653 121.944 35.3273 121.706 35.5001C121.479 35.6729 121.209 35.8187 120.896 35.9375C120.594 36.0455 120.243 36.0995 119.843 36.0995ZM120.297 34.7387C120.653 34.7387 120.972 34.6739 121.253 34.5443C121.533 34.4147 121.771 34.2311 121.965 33.9935C122.16 33.7559 122.295 33.4751 122.37 33.1511V31.7417C122.284 31.4393 122.138 31.1801 121.933 30.9641C121.728 30.7373 121.479 30.5591 121.188 30.4295C120.907 30.2999 120.594 30.2351 120.248 30.2351C119.859 30.2351 119.503 30.3323 119.179 30.5267C118.855 30.7103 118.596 30.9695 118.401 31.3043C118.207 31.6391 118.11 32.0279 118.11 32.4707C118.11 32.8919 118.207 33.2753 118.401 33.6209C118.607 33.9665 118.877 34.2419 119.211 34.4471C119.546 34.6415 119.908 34.7387 120.297 34.7387ZM126.595 35.9375V23.3501H128.264V35.9375H126.595ZM129.916 31.4015L133.027 35.9375H131.083L128.815 32.3573L129.916 31.4015ZM127.746 33.8477L127.584 32.2439L131.698 29.0039L132.719 29.8949L127.746 33.8477ZM149.635 34.9007C149.473 35.0411 149.246 35.1815 148.954 35.3219C148.663 35.4623 148.333 35.5865 147.966 35.6945C147.61 35.8025 147.242 35.8889 146.864 35.9537C146.486 36.0293 146.13 36.0671 145.795 36.0671C144.845 36.0671 143.992 35.9213 143.236 35.6297C142.48 35.3381 141.832 34.9331 141.292 34.4147C140.752 33.8963 140.336 33.2915 140.044 32.6003C139.763 31.8983 139.623 31.1369 139.623 30.3161C139.623 29.3117 139.785 28.4207 140.109 27.6431C140.433 26.8655 140.87 26.2121 141.421 25.6829C141.983 25.1429 142.625 24.7379 143.349 24.4679C144.083 24.1871 144.85 24.0467 145.649 24.0467C146.351 24.0467 146.999 24.1277 147.593 24.2897C148.198 24.4517 148.717 24.6623 149.149 24.9215L148.582 26.5091C148.366 26.3903 148.096 26.2769 147.772 26.1689C147.458 26.0501 147.134 25.9583 146.8 25.8935C146.465 25.8287 146.157 25.7963 145.876 25.7963C145.185 25.7963 144.564 25.8989 144.013 26.1041C143.473 26.2985 143.009 26.5847 142.62 26.9627C142.231 27.3407 141.929 27.7997 141.713 28.3397C141.508 28.8797 141.405 29.4899 141.405 30.1703C141.405 30.7859 141.513 31.3529 141.729 31.8713C141.945 32.3789 142.247 32.8217 142.636 33.1997C143.025 33.5669 143.489 33.8531 144.029 34.0583C144.569 34.2527 145.169 34.3499 145.828 34.3499C146.206 34.3499 146.578 34.3121 146.945 34.2365C147.313 34.1609 147.626 34.0529 147.885 33.9125V31.7741H145.617V30.1055H149.635V34.9007ZM155.028 36.0995C154.39 36.0995 153.813 35.9699 153.294 35.7107C152.776 35.4407 152.365 35.0411 152.063 34.5119C151.761 33.9827 151.609 33.3293 151.609 32.5517C151.609 31.7849 151.766 31.1261 152.079 30.5753C152.403 30.0245 152.824 29.6033 153.343 29.3117C153.872 29.0093 154.444 28.8581 155.06 28.8581C155.708 28.8581 156.237 28.9985 156.648 29.2793C157.069 29.5493 157.398 29.8679 157.636 30.2351L157.522 30.4943L157.684 29.1497H159.223V35.9375H157.555V34.2365L157.733 34.6415C157.69 34.7279 157.598 34.8521 157.458 35.0141C157.317 35.1653 157.128 35.3273 156.891 35.5001C156.664 35.6729 156.394 35.8187 156.081 35.9375C155.778 36.0455 155.427 36.0995 155.028 36.0995ZM155.481 34.7387C155.838 34.7387 156.156 34.6739 156.437 34.5443C156.718 34.4147 156.955 34.2311 157.15 33.9935C157.344 33.7559 157.479 33.4751 157.555 33.1511V31.7417C157.468 31.4393 157.323 31.1801 157.117 30.9641C156.912 30.7373 156.664 30.5591 156.372 30.4295C156.091 30.2999 155.778 30.2351 155.433 30.2351C155.044 30.2351 154.687 30.3323 154.363 30.5267C154.039 30.7103 153.78 30.9695 153.586 31.3043C153.391 31.6391 153.294 32.0279 153.294 32.4707C153.294 32.8919 153.391 33.2753 153.586 33.6209C153.791 33.9665 154.061 34.2419 154.396 34.4471C154.731 34.6415 155.092 34.7387 155.481 34.7387ZM163.27 29.1497L163.432 31.0937L163.351 30.8345C163.535 30.4241 163.794 30.0731 164.129 29.7815C164.463 29.4899 164.809 29.2685 165.165 29.1173C165.533 28.9553 165.84 28.8743 166.089 28.8743L166.008 30.5267C165.489 30.4943 165.036 30.5915 164.647 30.8183C164.269 31.0451 163.972 31.3475 163.756 31.7255C163.54 32.1035 163.432 32.5085 163.432 32.9405V35.9375H161.78V29.1497H163.27ZM171.017 39.3071C170.488 39.3071 170.029 39.2477 169.64 39.1289C169.252 39.0101 168.901 38.8427 168.587 38.6267C168.285 38.4215 167.993 38.2001 167.713 37.9625L168.701 36.8123C169.036 37.1255 169.381 37.3739 169.738 37.5575C170.094 37.7519 170.51 37.8491 170.985 37.8491C171.46 37.8491 171.865 37.7681 172.2 37.6061C172.546 37.4549 172.81 37.2389 172.994 36.9581C173.177 36.6773 173.269 36.3425 173.269 35.9537L173.285 34.1879L173.399 34.5119C173.215 34.9547 172.875 35.3327 172.378 35.6459C171.881 35.9483 171.271 36.0995 170.548 36.0995C169.932 36.0995 169.36 35.9429 168.83 35.6297C168.312 35.3165 167.896 34.8899 167.583 34.3499C167.27 33.8099 167.113 33.1997 167.113 32.5193C167.113 31.8065 167.275 31.1801 167.599 30.6401C167.934 30.0893 168.371 29.6573 168.911 29.3441C169.451 29.0201 170.029 28.8581 170.645 28.8581C171.25 28.8581 171.79 28.9769 172.265 29.2145C172.74 29.4413 173.096 29.7275 173.334 30.0731L173.237 30.3485L173.415 29.1497H174.954V35.9699C174.954 36.5963 174.787 37.1579 174.452 37.6547C174.128 38.1623 173.674 38.5619 173.091 38.8535C172.508 39.1559 171.817 39.3071 171.017 39.3071ZM168.798 32.4707C168.798 32.8919 168.895 33.2753 169.09 33.6209C169.284 33.9665 169.549 34.2419 169.883 34.4471C170.229 34.6415 170.612 34.7387 171.034 34.7387C171.412 34.7387 171.752 34.6739 172.054 34.5443C172.357 34.4039 172.61 34.2203 172.816 33.9935C173.032 33.7559 173.188 33.4805 173.285 33.1673V31.7579C173.188 31.4447 173.032 31.1801 172.816 30.9641C172.6 30.7373 172.34 30.5591 172.038 30.4295C171.736 30.2999 171.401 30.2351 171.034 30.2351C170.612 30.2351 170.229 30.3323 169.883 30.5267C169.549 30.7103 169.284 30.9695 169.09 31.3043C168.895 31.6391 168.798 32.0279 168.798 32.4707Z" fill="#333333"></path>
<path d="M24.8009 26.0386L16.8521 31.0969V48.8012V50.2464L30.9432 58.5566L32.549 57.5395L44.7533 50.2464L30.9432 43.3012" stroke="black" stroke-width="4.06809"></path>
<path d="M2.03418 43.743V4.36011L47.1981 30.3745V36.1555" stroke="black" stroke-width="4.06809"></path>
<path d="M32.2065 21.2901L60.9298 3.63745V44.4656" stroke="black" stroke-width="4.06809"></path>
</svg>